<?xml version="1.0" encoding="UTF-8"?>
<!DOCTYPE svg PUBLIC "-//W3C//DTD SVG 1.1//EN" "http://www.w3.org/Graphics/SVG/1.1/DTD/svg11.dtd">
<!-- Creator: CorelDRAW X8 -->
<svg xmlns="http://www.w3.org/2000/svg" xml:space="preserve" width="200px" height="175px" version="1.1" shape-rendering="geometricPrecision" text-rendering="geometricPrecision" image-rendering="optimizeQuality" fill-rule="evenodd" clip-rule="evenodd"
viewBox="0 0 200 175"
 xmlns:xlink="http://www.w3.org/1999/xlink">
 <g id="Layer_x0020_1">
  <metadata id="CorelCorpID_0Corel-Layer"/>
  <g id="_1684395331792">
   <path fill="#0D80D8" d="M29 109l15 -1c0,-11 -7,-21 4,-44 3,-7 7,-14 12,-20 10,-11 30,-20 45,-20 17,0 23,2 37,10 5,2 11,7 14,11 12,14 18,25 18,48 0,14 -6,30 -16,40 -4,6 -6,8 -12,12 -17,12 -38,15 -57,9 -9,-3 -14,-7 -17,-7 -4,0 -12,5 -16,6 3,4 15,10 20,13 4,1 8,3 13,4 6,1 12,2 18,2l3 0c16,0 30,-5 44,-14 12,-8 21,-19 27,-31 13,-27 11,-59 -6,-84 -14,-19 -39,-33 -62,-33 -20,0 -27,0 -45,10 -5,2 -9,6 -13,9 -4,4 -7,6 -11,11 -13,17 -15,29 -18,49 0,7 3,17 3,20z"/>
   <path fill="#F1AF0C" d="M8 167c3,0 7,-2 10,-3l137 -53c3,-1 7,-3 9,-5 -5,0 -9,1 -13,1 -4,0 -9,-1 -13,0l-104 5c-7,1 -5,2 -11,16l-15 39z"/>
   <path fill="#F1AF0C" d="M96 106l3 0c8,0 13,0 20,0l0 -71 -23 0 0 71z"/>
   <path fill="#F1AF0C" d="M125 105l16 -1c3,0 8,1 8,-2l0 -58 -24 0 0 61z"/>
   <path fill="#F0922D" d="M67 108c8,0 14,-1 23,-1l0 -46c0,-1 0,-2 -2,-2l-21 0 0 49z"/>
  </g>
 </g>
</svg>
